<?xml version="1.0" encoding="iso-8859-1"?>
<!-- Generator: Adobe Illustrator 19.0.0, SVG Export Plug-In . SVG Version: 6.00 Build 0)  -->
<svg version="1.1" id="Layer_1" xmlns="http://www.w3.org/2000/svg" xmlns:xlink="http://www.w3.org/1999/xlink" x="0px" y="0px"
	 viewBox="0 0 511.984 511.984" style="enable-background:new 0 0 511.984 511.984;" xml:space="preserve">
<path style="fill:#967ADC;" d="M402.186,350.785c-2.125,0-4.266-0.641-6.125-1.953c-4.812-3.375-5.969-10.03-2.594-14.843
	c0.297-0.438,13.641-19.826,23.422-51.403c9.015-29.077,16.796-74.849,2.672-127.761c-8.562-32.139-5.547-59.38,8.983-80.98
	c23.765-35.351,69.496-41.515,71.434-41.757c5.844-0.742,11.172,3.398,11.922,9.242c0.734,5.844-3.406,11.18-9.25,11.921
	c-0.359,0.047-38.217,5.312-56.481,32.608c-10.874,16.25-12.89,37.608-6,63.466c15.531,58.201,6.844,108.48-3.171,140.416
	c-10.891,34.717-25.468,55.653-26.077,56.528C408.843,349.207,405.546,350.785,402.186,350.785z"/>
<path style="fill:#AC92EB;" d="M364.173,115.811c-40.295-40.287-93.872-62.474-150.854-62.474S102.777,75.524,62.482,115.811
	C22.186,156.106,0,209.674,0,266.656c0,56.989,22.186,110.55,62.482,150.846c40.295,40.296,93.855,62.481,150.837,62.481
	c56.981,0,110.559-22.186,150.854-62.481s62.481-93.856,62.481-150.846C426.654,209.674,404.468,156.106,364.173,115.811z"/>
<g>
	<path style="fill:#967ADC;" d="M270.769,61.117c-13.749,13.57-45.217,47.147-77.559,99.199
		c-24.75,39.85-44.842,82.317-59.716,126.206c-17.781,52.498-28.093,107.184-30.687,162.682c6.656,4.047,13.515,7.719,20.562,10.999
		c0.25-0.843,0.406-1.749,0.438-2.671c1.906-55.826,11.906-110.903,29.733-163.666c14.281-42.279,33.577-83.192,57.373-121.612
		c32.499-52.467,67.294-89.637,81.169-101.964c0.5-0.445,0.953-0.938,1.344-1.453C286.035,65.844,278.472,63.258,270.769,61.117z"/>
	<path style="fill:#967ADC;" d="M213.319,53.337c-1.109,0-2.234,0.023-3.344,0.039c-14.375,15.359-42.577,47.982-71.122,95.051
		c-23.437,38.639-42.17,79.02-55.717,120.011c-15.624,47.319-24.311,95.582-25.874,143.643c1.703,1.828,3.438,3.641,5.219,5.422
		c4.515,4.516,9.218,8.797,14.046,12.859c1.125-1.688,1.797-3.703,1.812-5.875c0.359-49.749,8.749-99.856,24.92-148.963
		c12.968-39.39,30.968-78.231,53.482-115.449c30.765-50.873,64.248-88.434,77.653-101.183c1.281-1.219,2.188-2.68,2.734-4.234
		C229.271,53.79,221.335,53.337,213.319,53.337z"/>
	<path style="fill:#967ADC;" d="M84.418,139.654C65.185,172.551,49.936,207.112,39.061,242.4
		c-11.453,37.202-18.03,75.279-19.608,113.495c4.765,10.344,10.375,20.312,16.796,29.827c2.562-1.969,4.203-5.062,4.172-8.547
		c-0.328-43.029,6.016-86.121,18.89-128.057c10.328-33.639,24.842-66.63,43.154-98.067c25.03-42.974,52.513-74.332,63.544-84.918
		c2.328-2.227,3.422-5.266,3.266-8.257c-11.671,2.437-23.061,5.843-34.092,10.171C122.323,82.96,103.386,107.194,84.418,139.654z"/>
	<path style="fill:#967ADC;" d="M235.131,320.865c64.826,0,128.542-9.952,190.118-29.687c0.858-7.531,1.327-15.187,1.39-22.882
		c-69.606,23.335-142.104,33.663-215.929,30.741c4.688-12.469,9.719-24.765,15.093-36.819c3.375,0.047,6.734,0.078,10.109,0.078
		c62.623,0,125.979-8.093,188.853-24.093c-0.938-7.093-2.234-14.108-3.859-21.022c-61.67,15.812-123.792,23.788-185.165,23.772
		c6.296-12.882,12.968-25.491,20.03-37.779c0.656,0,1.312,0.008,1.969,0.008c62.904,0,119.651-13.96,150.588-23.304
		c-2.953-6.625-6.25-13.093-9.891-19.397c-28.437,8.304-76.621,19.757-129.745,21.21c8.469-13.445,16.922-25.655,24.922-36.467
		c35.654-1.141,63.872-6.085,81.574-10.14c1.766-0.406,3.469-0.812,5.109-1.211c-5-6.266-10.375-12.305-16.124-18.062
		c-0.047-0.039-0.094-0.086-0.141-0.133c-14,2.921-31.844,5.757-53.029,7.289c11.547-13.983,21.123-23.999,27.014-29.437
		c-5.938-4.297-12.062-8.273-18.373-11.906c-11.499,11.406-41.249,43.186-73.357,95.707c-1.938,3.156-3.828,6.344-5.719,9.547
		c-0.094,0.156-0.188,0.312-0.266,0.477c-11.218,19.108-21.545,38.967-30.936,59.451c-0.062,0.148-0.141,0.305-0.203,0.461
		c-8.062,17.616-15.421,35.679-22.046,54.115c-0.453,1.234-0.891,2.484-1.328,3.734c-0.016,0.047-0.031,0.094-0.047,0.156
		c-6.39,18.123-12.078,36.622-17.031,55.435c-0.078,0.25-0.141,0.5-0.203,0.781c-4.593,17.53-8.578,35.343-11.906,53.389
		c-0.047,0.188-0.078,0.375-0.109,0.578c-3.312,17.968-5.983,36.155-8.015,54.528c6.843,2.172,13.812,4,20.858,5.469
		c1.672-15.686,3.828-31.232,6.453-46.622c15.671,1.438,31.327,2.156,46.858,2.156c18.108,0,36.076-0.969,53.778-2.906
		c33.5-3.656,66.278-10.844,97.824-21.375c8.499-9.749,16.046-20.155,22.562-31.077c-0.469,0.125-0.938,0.266-1.391,0.453
		c-38.498,15.844-79.309,26.203-121.323,30.78c-30.842,3.375-62.544,3.672-94.402,0.906c2.187-10.905,4.625-21.749,7.296-32.468
		c16.359,1.312,32.562,1.969,48.592,1.969c60.92,0,119.354-9.374,174.524-27.968c3.531-8.39,6.516-17.015,8.922-25.812
		c-70.201,26.327-146.292,36.687-226.476,30.843c3.265-11.562,6.812-22.999,10.64-34.279
		C213.866,320.584,224.506,320.865,235.131,320.865z"/>
</g>
<path style="opacity:0.2;fill:#FFFFFF;enable-background:new    ;" d="M83.808,417.502c-40.279-40.296-62.481-93.856-62.481-150.846
	c0-56.982,22.202-110.55,62.481-150.845c37.78-37.764,87.215-59.623,140.182-62.216c-3.53-0.172-7.093-0.258-10.671-0.258
	c-56.982,0-110.542,22.187-150.837,62.474C22.186,156.106,0,209.674,0,266.656c0,56.989,22.186,110.55,62.482,150.846
	c40.295,40.296,93.855,62.481,150.837,62.481c3.578,0,7.141-0.094,10.671-0.266C171.024,477.139,121.589,455.266,83.808,417.502z"/>
<g>
</g>
<g>
</g>
<g>
</g>
<g>
</g>
<g>
</g>
<g>
</g>
<g>
</g>
<g>
</g>
<g>
</g>
<g>
</g>
<g>
</g>
<g>
</g>
<g>
</g>
<g>
</g>
<g>
</g>
</svg>
