<svg width="186" height="246" viewBox="0 0 186 246" fill="none" xmlns="http://www.w3.org/2000/svg">
<path fill-rule="evenodd" clip-rule="evenodd" d="M107.661 65.6848C107.661 65.6848 55.4546 49.5859 71.5535 32.0223C87.6524 14.4588 113.023 48.1212 117.418 57.8774C117.418 57.8774 112.539 9.56795 129.619 11.0326C145.942 12.4325 131.065 49.4882 126.736 54.8914C130.825 50.7798 157.558 25.0112 170.605 40.301C184.755 56.8967 141.821 71.5309 128.638 67.1368C128.638 67.1368 171.573 81.771 154.493 97.3859C137.414 113.001 117.405 71.5309 117.405 71.5309C117.405 71.5309 93.5112 107.168 75.4509 89.1072C57.3906 71.0469 107.661 65.6848 107.661 65.6848ZM71.9458 168.906C72.7189 159.095 66.4335 145.735 66.4335 145.735C67.9747 148.83 103.739 160.917 103.229 140.08C102.72 119.243 70.038 136.476 70.038 136.476C78.0237 130.299 83.6787 101.221 69.5285 101.221C55.3783 101.221 60.2691 135.189 60.2691 135.189C59.5049 130.821 50.5002 103.284 34.032 112.034C17.5637 120.784 51.7866 142.143 51.7866 142.143C43.0366 138.539 7.7821 141.112 12.4182 154.485C17.0415 167.858 55.1236 149.849 55.1236 149.849C55.1236 149.849 45.8514 181.499 63.3513 178.926C68.6188 178.151 70.9926 174.832 71.7381 170.571C80.1002 185.157 93.0998 200.284 111.54 201.86L111.625 200.864C93.6834 199.33 80.9017 184.564 72.5727 170.016C72.3608 169.646 72.1518 169.276 71.9458 168.906ZM132.573 148.179C132.573 148.179 102.757 127.138 116.538 121.127C130.014 115.248 136.06 134.274 138.191 140.979C138.24 141.131 138.286 141.277 138.33 141.416C138.33 141.416 131.822 113.357 146.596 114.363C161.383 115.37 147.348 139.913 145.845 142.422C145.845 142.422 173.407 123.878 175.406 140.664C177.406 157.451 148.596 150.688 148.596 150.688C148.596 150.688 166.134 167.22 153.601 175.486C141.081 183.752 138.318 151.681 138.318 151.681C138.318 151.681 124.791 175.728 113.01 163.705C101.229 151.681 132.573 148.179 132.573 148.179ZM65.4164 199.509C66.9066 209.532 94.3664 207.303 94.7358 201.738C95.1051 196.172 63.9263 189.498 65.4164 199.509ZM156.71 195.062C163.397 200.997 145.948 213.25 138.523 210.282C131.097 207.302 150.036 189.114 156.71 195.062ZM90.6454 101.895C98.0707 96.6987 105.865 119.713 101.777 122.681C97.7014 125.649 83.22 107.092 90.6454 101.895ZM127.759 97.8191C135.923 98.9272 121.824 116.376 115.889 116.376C109.941 116.376 119.595 96.6983 127.759 97.8191ZM126.295 178.403C132.88 179.664 129.746 201.303 122.525 202.87C115.316 204.436 119.71 177.142 126.295 178.403Z" fill="black"/>
<path d="M134.417 147.766C134.417 147.766 137.517 203.93 120.018 220.874" stroke="black" stroke-linejoin="round"/>
<path d="M115.124 61.127C115.124 61.127 82.6991 176.722 126.724 230.161" stroke="black" stroke-linejoin="round"/>
<path d="M102.662 60.6848C102.662 60.6848 50.455 44.5859 66.5539 27.0223C82.6528 9.45875 108.024 43.1212 112.418 52.8774C112.418 52.8774 107.54 4.56795 124.619 6.03265C141.699 7.49734 124.619 47.9993 121.206 50.432C121.206 50.432 151.455 18.7182 165.605 35.301C179.756 51.8967 136.821 66.5309 123.639 62.1368C123.639 62.1368 166.573 76.771 149.494 92.3859C132.414 108.001 112.405 66.5309 112.405 66.5309C112.405 66.5309 88.5116 102.168 70.4513 84.1072C52.391 66.0469 102.662 60.6848 102.662 60.6848Z" fill="#F9709A" stroke="black" stroke-linejoin="round"/>
<path d="M46.7866 137.143C46.7866 137.143 12.5637 115.784 29.032 107.034C45.5002 98.284 54.5049 125.82 55.2691 130.189C55.2691 130.189 50.3783 96.2207 64.5285 96.2207C78.6787 96.2207 73.0237 125.298 65.038 131.475C65.038 131.475 97.7197 114.243 98.2292 135.08C98.7387 155.917 62.9747 143.83 61.4335 140.735C61.4335 140.735 75.8385 171.353 58.3513 173.926C40.8514 176.499 50.1236 144.849 50.1236 144.849C50.1236 144.849 12.0415 162.858 7.41818 149.485C2.7821 136.111 38.0367 133.539 46.7866 137.143Z" fill="#F9709A" stroke="black" stroke-linejoin="round"/>
<path d="M127.574 143.18C127.574 143.18 97.7577 122.139 111.539 116.127C125.319 110.116 131.331 130.15 133.331 136.417C133.331 136.417 126.822 108.358 141.597 109.364C156.384 110.371 142.348 134.914 140.845 137.423C140.845 137.423 168.407 118.878 170.407 135.665C172.406 152.452 143.596 145.689 143.596 145.689C143.596 145.689 161.134 162.221 148.602 170.487C136.082 178.753 133.318 146.682 133.318 146.682C133.318 146.682 119.792 170.729 108.011 158.705C96.2293 146.682 127.574 143.18 127.574 143.18Z" fill="#F9709A" stroke="black" stroke-linejoin="round"/>
<path d="M60.416 194.509C61.9062 204.533 89.366 202.304 89.7354 196.738C90.1047 191.172 58.9259 184.498 60.416 194.509Z" fill="white" stroke="black" stroke-linejoin="round"/>
<path d="M151.711 190.062C158.397 195.997 140.948 208.25 133.523 205.282C126.097 202.302 145.037 184.114 151.711 190.062Z" fill="white" stroke="black" stroke-linejoin="round"/>
<path d="M85.6456 96.8957C93.0709 91.6992 100.866 114.714 96.7772 117.682C92.7016 120.649 78.2202 102.092 85.6456 96.8957Z" fill="white" stroke="black" stroke-linejoin="round"/>
<path d="M122.759 92.8196C130.923 93.9276 116.824 111.377 110.889 111.377C104.941 111.377 114.595 91.6988 122.759 92.8196Z" fill="white" stroke="black" stroke-linejoin="round"/>
<path d="M121.295 173.404C127.879 174.665 124.746 196.304 117.525 197.87C110.316 199.437 114.71 172.143 121.295 173.404Z" fill="white" stroke="black" stroke-linejoin="round"/>
</svg>
