<svg width="517" height="428" viewBox="0 0 517 428" fill="none" xmlns="http://www.w3.org/2000/svg">
<path fill-rule="evenodd" clip-rule="evenodd" d="M249.907 12H248.513C242.161 12 237.012 17.1413 237.012 23.4835C237.012 26.4699 238.153 29.1901 240.025 31.2325L186.029 140.941C182.453 146.688 179.451 152.78 177.08 159.124L173.561 166.274L170.442 157.109L167.202 159.372C166.517 158.258 165.835 157.166 165.156 156.097L165.214 156.067L162.426 151.195L162.077 151.37C160.25 148.634 158.447 146.06 156.672 143.64L156.849 143.538L154.06 140.059L153.998 140.083C124.434 101.729 102.903 105.924 98.9522 107.121C98.9173 106.88 98.9276 106.717 98.9928 106.652L98.2931 107.351C86.8921 115.058 85.013 134.044 86.1315 151.667C80.1542 150.621 73.9497 151.273 67.6708 153.886C67.6708 153.886 50.407 164.121 43.3523 182.513H22.3182C20.4695 182.513 18.6965 183.246 17.3893 184.551C16.0821 185.856 15.3477 187.627 15.3477 189.473V192.256C15.3477 194.102 16.0821 195.873 17.3893 197.178C18.6965 198.483 20.4695 199.216 22.3182 199.216H27.311L79.6302 388.806C79.8383 389.553 80.2418 390.23 80.7992 390.77C81.3566 391.309 82.0479 391.691 82.8019 391.875C83.1379 391.953 83.4816 391.993 83.8265 391.993H435.337C435.732 391.994 436.115 391.863 436.426 391.621C436.736 391.378 436.957 391.039 437.052 390.657L437.052 390.656C437.066 390.608 437.066 390.608 437.066 390.553L498.307 199.216H504.68C506.529 199.216 508.302 198.483 509.609 197.178C510.916 195.873 511.651 194.102 511.651 192.256V189.473C511.651 187.627 510.916 185.856 509.609 184.551C508.302 183.246 506.529 182.513 504.68 182.513H488.542L495.263 164.762L495.278 164.767L497.09 159.938L497.217 159.601L494.638 131.226L494.637 131.226L499.802 117.69L426.172 91.25L422.297 105.434L422.298 105.434L422.309 105.507L422.296 105.434L426.172 91.25H426.171H422.073H422.072L415.192 105.434L389.359 126.069H389.36L373.758 168.874C368.771 149.04 358.154 132.053 343.989 119.162C334.104 110.096 322.471 103.034 309.805 98.4053L276.652 31.8099C278.651 29.7439 279.881 26.931 279.881 23.8312C279.881 17.489 274.732 12.3477 268.38 12.3477H266.986C263.681 12.3477 260.702 13.7394 258.604 15.968C256.495 13.5375 253.381 12 249.907 12ZM269.046 35.2957C268.826 35.3083 268.604 35.3147 268.38 35.3147H266.986C263.512 35.3147 260.398 33.7772 258.289 31.3467C256.191 33.5753 253.212 34.967 249.907 34.967H248.513C248.181 34.967 247.852 34.953 247.527 34.9254L207.491 116.272C219.331 106.388 233.604 98.9821 249.667 95.0903C266.416 91.0321 283.189 91.2603 298.801 95.0649L269.046 35.2957ZM312.746 305.039C316.288 306.4 319.075 309.266 321.192 313.088L335.28 274.436C324.373 282.568 311.651 288.692 297.55 292.109C284.397 295.295 271.229 295.839 258.62 294.083V317.477L258.72 317.531H283.085C292.636 308.165 304.048 301.699 312.746 305.039ZM224.03 314.567L225.523 317.531H226.038C227.028 316.072 228.223 314.831 229.642 313.855C235.025 310.155 242.838 310.831 250.987 313.936V292.726C236.059 289.489 222.118 282.999 210.176 273.861L224.03 314.567ZM131.984 317.531H135.005C138.673 311.577 143.056 306.77 147.858 304.441L119.957 252.345C117.213 260.68 114.847 266.16 114.847 266.16C112.961 268.566 111.074 270.452 109.212 271.906L110.287 271.59C110.287 271.59 116.637 288.801 116.637 287.889C116.637 286.978 127.511 284.263 129.33 296.937C131.15 309.611 117.543 304.182 117.543 304.182C117.798 306.474 117.479 307.977 116.889 308.955C121.863 310.652 127.072 313.728 131.984 317.531ZM95.319 275.997C94.4201 275.866 93.5524 275.67 92.721 275.424V317.531H95.0382C96.7773 313.632 99.2505 310.598 102.585 308.943C103.854 308.314 105.208 307.904 106.627 307.691C96.4968 300.765 104.85 292.42 104.85 292.42C101.218 288.801 94.875 276.127 94.875 276.127L95.319 275.997ZM82.1973 268.881C72.3622 262.462 63.7958 254.784 57.0171 245.846H48.1095L67.9406 317.531H85.0882V271.448C83.2501 270.048 82.1973 268.881 82.1973 268.881ZM482.218 199.216L467.454 238.211H477.126V240.299L490.26 199.216H482.218ZM40.4128 199.216C40.4254 199.795 40.4495 200.379 40.4857 200.968C41.345 214.973 45.3807 227.388 51.8555 238.211H46.0183L35.2602 199.216H40.4128ZM464.563 245.846L437.422 317.531H452.492L475.404 245.846H464.563ZM434.524 325.187L430.793 335.042V384.345H431.099L450.01 325.187H434.524ZM351.252 345.328L345.752 342.974V384.345H423.125V355.293L417.133 371.12L351.254 345.328L352.032 343.272L351.252 345.328ZM273.896 328.19C274.629 327.183 275.393 326.18 276.185 325.187H270.285C271.531 326.167 272.738 327.171 273.896 328.19ZM338.084 384.345V339.693L326.453 334.716C327.024 345.16 325.574 356.089 322.686 363.598C318.72 373.917 310.668 381.334 301.495 384.345H338.084ZM276.406 384.345H283.361C283.041 384.235 282.721 384.119 282.403 383.997C281.256 383.558 280.154 383.049 279.099 382.476C278.638 382.837 278.164 383.186 277.676 383.521C277.258 383.809 276.835 384.083 276.406 384.345ZM98.2497 368.184C95.7775 363.218 93.8306 356.568 92.721 349.49V384.345H114.276C107.684 381.109 101.92 375.556 98.2497 368.184ZM141.295 384.345H140.956L140.998 384.322L141.072 384.283L141.123 384.255C141.18 384.285 141.238 384.315 141.295 384.345ZM167.306 384.182C167.203 384.237 167.1 384.291 166.997 384.345H167.306V384.182ZM181.777 367.775C180.144 371.775 177.82 375.356 174.973 378.334V384.345H190.651L181.777 367.775ZM228.442 363.211L192.137 384.345H246.085C241.357 381.755 237.074 377.974 233.727 373.117C231.827 370.361 230.03 366.971 228.442 363.211ZM70.0597 325.187H85.0534V379.64L70.0597 325.187Z" fill="black"/>
<path d="M147.502 336.264C155.741 352.807 150.29 372.253 135.289 379.686C120.289 387.119 101.489 379.734 93.2497 363.184C85.0105 346.634 82.6057 311.376 97.5854 303.943C112.565 296.51 139.304 319.714 147.502 336.264Z" fill="white" stroke="black" stroke-miterlimit="10"/>
<path d="M179.44 349.04C179.44 367.518 165.875 382.495 149.146 382.495C132.416 382.495 118.852 367.518 118.852 349.04C118.852 330.562 132.416 297.914 149.146 297.914C165.875 297.914 179.44 330.562 179.44 349.04Z" fill="white" stroke="black" stroke-miterlimit="10"/>
<path d="M278.629 333.812C289.126 349.033 286.457 369.049 272.676 378.521C258.895 387.994 239.217 383.338 228.727 368.117C218.236 352.896 210.861 318.327 224.642 308.855C238.423 299.383 268.131 318.592 278.629 333.812Z" fill="white" stroke="black" stroke-miterlimit="10"/>
<path d="M317.686 358.598C311.057 375.845 293.017 384.983 277.403 378.997C261.789 373.012 254.491 354.179 261.12 336.926C267.749 319.673 292.125 294.04 307.746 300.039C323.367 306.039 324.322 341.345 317.686 358.598Z" fill="white" stroke="black" stroke-miterlimit="10"/>
<path d="M87.4329 182.662C87.4034 182.548 87.3657 182.402 87.3205 182.225C87.1992 181.749 87.0242 181.049 86.8097 180.151C86.3807 178.355 85.7939 175.77 85.1636 172.618C83.9027 166.312 82.4687 157.742 81.7737 148.678C81.0783 139.608 81.1247 130.069 82.8106 121.814C84.494 113.572 87.7948 106.691 93.5361 102.79C93.5441 102.787 93.5533 102.784 93.5637 102.78C93.6143 102.76 93.6927 102.731 93.7983 102.695C94.0096 102.624 94.3298 102.525 94.7544 102.42C95.6036 102.211 96.8705 101.98 98.5188 101.9C101.813 101.74 106.642 102.185 112.717 104.637C124.841 109.531 141.971 122.438 161.748 154.588C161.721 154.651 161.688 154.727 161.649 154.815C161.515 155.115 161.31 155.557 161.028 156.116C160.464 157.235 159.591 158.822 158.362 160.685C155.902 164.412 152.017 169.24 146.319 173.636C134.98 182.384 116.402 189.472 87.4329 182.662Z" fill="white" stroke="black"/>
<path d="M114.557 143.063C121.101 143.063 126.407 137.454 126.407 130.535C126.407 123.617 121.101 118.008 114.557 118.008C108.012 118.008 102.707 123.617 102.707 130.535C102.707 137.454 108.012 143.063 114.557 143.063Z" fill="black"/>
<path d="M115.441 135.501C118.338 135.222 120.447 132.514 120.151 129.453C119.856 126.393 117.267 124.138 114.37 124.417C111.473 124.696 109.365 127.403 109.66 130.464C109.956 133.525 112.544 135.78 115.441 135.501Z" fill="white"/>
<path d="M84.2344 170.553C84.2344 170.553 133.028 141.322 149.06 135.059L151.849 138.538C151.849 138.538 105.146 165.521 84.9314 174.033L84.2344 170.553Z" fill="black"/>
<path d="M87.0234 183.082C87.0234 183.082 142.091 153.851 157.426 146.195L160.214 151.067C160.214 151.067 107.238 178.586 87.0234 187.098V183.082Z" fill="black"/>
<path d="M91.9017 103.74C91.9017 103.74 93.2958 111.396 95.3869 115.572C95.3869 115.572 88.4164 124.765 91.9017 127.48C91.9017 127.48 92.5987 130.264 95.3869 125.023C98.1751 119.782 97.4781 117.465 105.146 114.082C105.146 114.082 110.722 112.44 105.146 110.178C105.146 110.178 102.357 110.7 98.8722 114.18C98.8722 114.18 93.2958 102.348 93.9928 101.652L91.9017 103.74Z" fill="black"/>
<path d="M131.983 136.797L81.0977 184.123L186.004 380.004L238.981 349.165L131.983 136.797Z" fill="#8738F6" stroke="black" stroke-miterlimit="10"/>
<path d="M165.442 152.109L146.398 165.409L219.032 309.573L165.442 152.109Z" fill="#8738F6" stroke="black" stroke-miterlimit="10"/>
<path d="M182.981 284.254L176.707 342.131" stroke="black" stroke-miterlimit="10"/>
<path d="M189.953 305.242L196.227 353.96" stroke="black" stroke-miterlimit="10"/>
<path d="M89.875 271.127C89.875 271.127 96.2181 283.801 99.8497 287.42C99.8497 287.42 88.9688 298.291 107.106 305.515C107.106 305.515 113.449 307.325 112.543 299.182C112.543 299.182 126.15 304.611 124.33 291.937C122.511 279.263 111.637 281.978 111.637 282.889C111.637 283.801 105.287 266.59 105.287 266.59L89.875 271.127Z" fill="white" stroke="black" stroke-miterlimit="10"/>
<path d="M62.6708 148.886C62.6708 148.886 33.6524 166.09 35.4857 195.968C37.3189 225.846 53.609 248.486 77.1973 263.881C77.1973 263.881 93.5224 281.976 109.847 261.16C109.847 261.16 132.516 208.649 118.909 181.485C105.303 154.321 84.4329 139.831 62.6708 148.886Z" fill="#F9709A" stroke="black" stroke-miterlimit="10"/>
<path d="M114.977 184.172C102.723 159.701 80.8214 146.172 64.3152 154.802C64.3152 154.802 38.1687 170.308 39.7998 197.256C39.7998 197.256 43.6266 231.31 87.1507 220.446C130.675 209.582 114.977 184.172 114.977 184.172Z" fill="black" stroke="black" stroke-miterlimit="10"/>
<path d="M113.18 194.317C104.847 190.964 95.8552 189.527 86.8811 190.113C86.7679 188.439 86.181 186.831 85.1876 185.473C84.1942 184.115 82.8347 183.063 81.2653 182.436C83.9946 174.472 89.3023 167.593 94.6603 161.132C95.6539 159.935 93.9245 158.201 92.9246 159.411C87.2647 166.202 81.6929 173.443 78.8692 181.862C78.5548 181.831 78.2403 181.813 77.907 181.813C76.7271 181.794 75.5608 182.064 74.5112 182.598C73.4044 181.777 72.2209 181.063 70.9768 180.465C68.691 179.198 66.5198 177.737 64.487 176.1C60.7137 172.981 57.6448 169.071 56.3116 164.363C55.8776 162.86 53.5068 163.496 53.947 164.986C55.3688 169.57 58.0468 173.673 61.6822 176.836C63.5606 178.514 65.5874 180.021 67.7382 181.338C68.8639 182.043 70.021 182.704 71.1907 183.34C71.6802 183.578 72.1548 183.845 72.6119 184.139C71.2473 185.773 70.5681 188.111 70.5681 190.718C70.5714 191.185 70.6156 191.65 70.7001 192.109C63.4435 197.825 51.766 200.548 42.4987 200.568C40.9202 200.568 40.914 203 42.4987 203C52.0804 202.97 64.0749 200.216 71.6749 194.429C73.1151 196.35 75.8256 197.111 78.9762 197.198C82.1406 206.703 82.2307 216.952 79.234 226.51C78.7623 228.007 81.1206 228.649 81.6049 227.134C84.663 217.345 84.6344 206.864 81.523 197.092C84.5794 196.749 86.3151 195.458 86.7931 192.546C95.591 191.953 104.409 193.359 112.577 196.656C113.992 197.254 114.627 194.903 113.18 194.317Z" fill="white"/>
<path d="M310.082 324.85L346.252 340.328L423.758 135.901L417.296 100.434L421.172 86.25H417.073L410.193 100.434L384.36 121.069L310.082 324.85Z" fill="white" stroke="black" stroke-miterlimit="10"/>
<path d="M346.254 340.328L423.111 137.195L417.298 100.434L489.638 126.226L492.217 154.601L412.133 366.12L346.254 340.328Z" fill="#8738F6" stroke="black" stroke-miterlimit="10"/>
<path d="M386.938 121.717L423.109 137.195L423.757 135.901L417.295 100.434L421.171 86.25H417.072L410.192 100.434L384.359 121.069L386.938 121.717Z" fill="#040403"/>
<path d="M423.109 137.197L490.278 159.767L492.215 154.603L423.109 132.68V137.197Z" fill="white"/>
<path d="M421.172 86.25L417.297 100.434L489.637 126.227L494.802 112.69L421.172 86.25Z" fill="white" stroke="black" stroke-miterlimit="10"/>
<path d="M292.55 287.109C347.8 273.722 381.869 218.767 368.646 164.362C355.423 109.956 299.916 76.7041 244.667 90.0903C189.417 103.476 155.348 158.432 168.571 212.837C181.794 267.242 237.301 300.495 292.55 287.109Z" fill="#9CF0E1" stroke="black" stroke-miterlimit="10"/>
<path d="M273.99 229.071C272.31 229.022 271.334 229.767 270.023 231.159C274.973 230.358 279.343 230.769 283.567 232.676C285.212 233.42 287.75 231.514 288 229.488C286.835 229.187 285.645 228.985 284.445 228.883C280.96 228.897 277.475 229.161 273.99 229.071Z" fill="white" stroke="black" stroke-miterlimit="10"/>
<path d="M293.694 228.263C292.251 228.709 290.863 229.313 289.554 230.066C289.261 230.219 289.129 230.943 289.184 231.367C289.235 231.562 289.332 231.742 289.467 231.892C289.601 232.042 289.77 232.158 289.958 232.23C293.095 232.982 295.918 232.105 298.706 230.483C297.591 230.01 296.615 229.613 295.618 229.175C294.956 228.876 294.21 228.124 293.694 228.263Z" fill="white" stroke="black" stroke-miterlimit="10"/>
<path d="M210.006 109.178C210.515 110.862 210.285 112.129 208.682 113.026C208.278 113.256 207.985 113.667 207.588 113.91C205.929 114.906 204.981 115.915 206.228 118.086C207.142 119.666 205.908 121.566 204.563 122.861C203.217 124.155 202.262 126.027 201.196 127.684C201.077 127.865 201.244 128.38 201.447 128.589C202.314 129.541 203.274 130.406 204.312 131.171C204.758 131.477 205.622 131.268 206.27 131.171C207.553 130.92 207.936 131.449 207.609 132.597C207.281 133.746 206.842 134.901 206.41 136.181C209.421 135.757 210.808 133.669 212.167 131.533C213.527 129.396 214.956 127.356 216.217 125.164C216.51 124.663 216.343 123.877 216.336 123.229C216.336 122.471 216.266 121.719 216.231 120.974L222.644 117.696C221.313 115.107 221.724 114.168 224.08 113.423C224.702 113.247 225.312 113.031 225.906 112.776C228.095 111.746 228.478 110.981 227.997 108.433C230.089 107.598 232.277 106.749 234.438 105.886C234.856 105.712 235.47 105.573 235.623 105.246C236.585 103.158 238.641 103.582 240.377 102.963C240.816 104.765 242.043 105.113 243.584 105.134C247.177 105.32 250.714 104.195 253.537 101.968C255.733 100.221 258.549 99.8796 261.373 100.193C262.197 100.309 263.038 100.165 263.776 99.7806C264.515 99.3962 265.115 98.7907 265.492 98.0491C266.105 96.5597 266.886 96.3512 268.343 96.9219C271.069 98.0146 273.878 98.8775 276.61 99.9562C278.481 100.673 280.29 101.541 282.019 102.552C282.486 102.831 282.43 103.986 282.66 104.946C283.978 104.25 285.93 104.807 286.648 102.267L289.729 104.278C288.253 104.843 286.815 105.498 285.421 106.241C284.312 107.02 283.259 107.876 282.27 108.802C284.229 111.426 286.759 112.428 289.624 112.874C291.053 113.096 292.412 113.569 293.869 113.869C296.218 114.307 297.78 115.852 299.32 117.481C301.411 119.659 304.067 119.68 306.779 119.569C307.071 119.569 307.594 119.249 307.594 119.082C307.594 116.994 309.462 116.297 310.745 115.073L299.55 110.201C299.773 109.895 300.247 109.212 300.791 108.489L298.735 106.832C299.298 106.651 299.885 106.552 300.477 106.54C302.478 106.937 304.471 107.382 306.444 107.932C306.958 108.123 307.406 108.46 307.733 108.9C308.849 110.291 309.651 112.066 311.024 113.075C313.707 115.045 314.23 118.149 315.701 120.731C316.251 121.738 317.125 122.53 318.182 122.979C321.487 124.538 323.592 127.106 323.989 130.871C324.24 133.272 325.474 134.177 327.781 133.773C328.474 133.679 329.173 133.644 329.872 133.669C331.824 133.669 332.828 135.527 331.852 137.267C330.409 139.842 330.855 141.366 333.434 142.751C333.759 142.883 334.055 143.077 334.305 143.322C336.299 145.932 336.285 145.939 339.882 146.851C340.453 145.772 341.276 144.686 341.61 143.461C341.945 142.236 341.722 140.859 341.743 139.55H342.44C342.466 140.796 342.408 142.042 342.266 143.28C341.91 145.243 341.715 147.115 343.186 148.737L343.29 148.876C347.019 152.808 348.002 157.805 349.069 162.879C350.505 169.665 354.074 175.49 358.786 180.487C360.752 182.575 363.254 184.447 366.579 183.577C366.869 183.505 367.142 183.375 367.382 183.196C367.621 183.016 367.822 182.791 367.973 182.533C368.67 180.974 369.095 179.332 369.695 177.738C369.995 177.087 370.343 176.46 370.733 175.859C370.811 175.356 370.761 174.841 370.587 174.363C370.295 171.077 369.744 167.819 368.942 164.619C355.698 110.215 300.205 76.9681 244.957 90.3516C231.464 93.6024 218.76 99.5185 207.595 107.751C208.78 106.978 209.505 107.514 210.006 109.178Z" fill="white" stroke="black" stroke-miterlimit="10"/>
<path d="M351.478 248.242C351.27 245.706 351.591 243.154 352.419 240.747C353.29 238.401 354.225 236.07 355.117 233.787C351.715 231.741 351.325 232.047 348.23 233.885C344.633 236.014 340.709 237.615 336.889 239.362C336.616 239.417 336.335 239.417 336.062 239.362C335.789 239.307 335.53 239.198 335.299 239.042C334.27 238.471 333.307 237.79 332.428 237.01C331.11 235.785 329.786 235.666 328.127 236.272C323.387 237.9 318.291 238.203 313.391 237.149C312.208 237.039 311.015 237.204 309.906 237.629C307.445 238.374 305.026 239.279 302.608 240.128C301.834 240.399 300.837 240.469 300.342 240.998C298.864 242.598 297.129 242.744 295.254 242.222C292.786 241.526 291.531 243.322 290.04 244.61C289.429 245.082 288.949 245.702 288.646 246.412C287.767 249.092 285.557 249.098 283.341 249.405C281.439 249.752 279.476 249.453 277.764 248.556C277.23 248.33 276.784 247.935 276.494 247.433C276.205 246.93 276.088 246.347 276.161 245.772C276.426 241.596 276.858 240.628 271.142 240.253C269.858 240.236 268.577 240.384 267.33 240.691C265.594 241.032 265.113 240.58 265.392 238.812C265.549 237.721 265.639 236.622 265.664 235.52C265.712 233.843 265.176 232.263 263.259 232.527C262.568 232.625 261.903 232.86 261.304 233.219C260.706 233.577 260.185 234.052 259.774 234.615C258.142 237.399 256.623 238.172 253.605 236.856C253.346 236.718 253.076 236.604 252.796 236.515C250.05 235.854 249.143 233.731 248.509 231.323C247.707 228.282 248.844 225.665 250.14 223.104C250.802 221.788 255.563 220.362 257.39 220.939C257.978 221.133 258.606 221.176 259.215 221.062C259.825 220.949 260.395 220.685 260.875 220.292C264.36 217.884 267.894 218.072 270.954 220.891C271.687 221.477 272.385 222.104 273.046 222.77C274.119 224.016 275.137 224.225 276.649 222.687C276.006 221.352 275.274 220.062 274.46 218.824C272.871 216.673 272.794 212.859 274.516 210.709C275.385 209.53 276.331 208.41 277.346 207.354C278.95 205.83 279.075 204.111 278.699 202.079C278.176 199.253 278.343 196.212 280.023 193.985C281.542 191.959 281.647 189.642 282.665 187.575C283.243 186.392 283.919 185.292 285.599 186.009C285.781 186.054 285.972 186.054 286.154 186.009C286.336 185.964 286.505 185.875 286.645 185.751C288.381 183.802 290.061 181.805 291.796 179.773C291.162 178.451 290.353 177.581 288.548 178.743C287.468 179.439 286.303 179.474 285.697 177.761C285.279 176.564 283.439 176.613 282.546 177.664C281.654 178.715 280.88 179.516 280.051 180.448L279.605 180.169C279.65 179.827 279.741 179.492 279.877 179.174C281.157 176.798 283.239 174.951 285.753 173.961C287.705 173.203 289.308 171.818 289.489 169.445C288.095 166.222 285.223 164.573 282.281 163.076C282.079 162.972 281.821 162.951 281.626 162.833C280.423 162.054 279.077 161.522 277.666 161.269C276.255 161.015 274.807 161.046 273.408 161.358C273.074 161.401 272.735 161.375 272.412 161.28C272.089 161.185 271.79 161.025 271.533 160.808C269.393 158.831 266.619 159.11 264.081 158.671C262.687 158.435 261.879 159.757 262.241 161.17C262.632 162.708 263.015 164.253 263.419 165.791C263.552 166.299 263.6 167.106 263.921 167.252C266.437 168.394 265.001 170.53 265.238 172.208C265.503 174.024 265.531 175.875 265.685 177.935C263.266 176.655 261.293 175.43 260.575 172.827C260.413 172.485 260.177 172.183 259.884 171.942C259.591 171.702 259.249 171.529 258.881 171.435C257.504 171.169 256.102 171.043 254.699 171.059C252.259 171.059 251.214 169.939 250.802 167.579C249.973 162.896 252.538 159.52 254.915 156.047C256.149 154.245 257.508 152.519 258.867 150.668L256.344 148.879C258.818 149.157 261.467 148.378 262.827 150.925C264.186 153.472 262.827 155.449 260.959 157.188C264.13 157.418 267.106 157.725 270.09 157.815C271.672 157.864 272.523 156.722 272.481 155.17C272.485 154.646 272.555 154.125 272.69 153.618C272.857 152.874 273.485 151.809 273.206 151.468C272.348 150.431 271.254 149.157 270.055 148.907C267.608 148.405 265.636 147.514 264.332 145.343C264.148 145.058 263.865 144.85 263.538 144.759C260.227 144.063 256.916 143.422 253.598 142.775C251.778 142.42 251.562 144.076 250.97 145.093C250.823 145.343 251.569 146.297 252.085 146.707C253.152 147.55 254.343 148.245 255.57 149.067C254.895 149.535 254.158 149.91 253.381 150.18C251.604 150.591 250.788 149.436 250.308 147.925C250.043 147.097 249.736 146.276 249.415 145.371L247.38 145.865C247.545 146.783 247.587 147.72 247.505 148.649C247.208 149.461 246.792 150.226 246.272 150.918C245.72 150.421 245.234 149.855 244.829 149.234C244.257 148.03 243.971 146.694 243.434 145.49C243.194 144.928 242.81 144.439 242.321 144.072C241.831 143.706 241.254 143.475 240.646 143.402C239.884 143.137 239.204 142.679 238.674 142.072C238.322 141.773 237.914 141.548 237.474 141.41C237.034 141.272 236.57 141.224 236.111 141.269C235.652 141.314 235.206 141.451 234.801 141.671C234.396 141.892 234.039 142.191 233.752 142.552C233.367 143.001 232.957 143.428 232.526 143.833L233.292 143.875C234.366 145.155 235.384 146.464 236.527 147.716C236.853 148.056 237.268 148.297 237.726 148.412C239.21 148.774 239.88 149.665 239.65 151.391C234.317 148.809 228.58 147.097 223.945 143.262C223.239 142.523 222.689 141.65 222.328 140.694C221.631 139.302 221.205 137.701 220.32 136.435C220 136.091 219.606 135.823 219.168 135.652C218.73 135.481 218.259 135.411 217.79 135.447C216.459 135.641 215.211 136.407 213.907 136.838C213.003 137.182 212.07 137.445 211.119 137.625C209.885 137.827 209.3 138.321 209.293 139.713C209.286 141.105 208.882 142.156 206.902 142.065C204.413 141.947 203.019 143.457 202.531 146.025C202.28 147.334 202.092 148.649 201.834 150.347L197.164 149.227C197.903 150.813 198.767 152.011 200.789 152.178C203.46 152.45 206.112 152.889 208.728 153.493C209.59 153.757 210.344 154.288 210.882 155.01C213.266 158.066 213.419 161.685 213.259 165.345C213.057 169.911 212.471 174.581 214.284 178.889C215.413 181.562 215.044 183.635 213.963 186.183C211.363 192.252 211.956 198.578 212.792 205.009C213.67 211.69 218.041 216.478 220.927 222.067C222.028 224.218 223.255 226.445 225.66 227.523C226.661 227.974 227.735 228.245 228.831 228.324C225.283 226.194 224.321 222.471 222.725 219.179C222.567 218.623 222.505 218.044 222.544 217.467C223.025 217.766 223.778 217.947 223.938 218.371C226.029 223.598 230.351 227.37 233 232.221C233.211 232.549 233.347 232.92 233.397 233.307C233.502 236.202 234.596 237.441 237.454 238.179C238.973 238.561 240.632 238.923 241.873 239.8C245.358 242.243 249.304 242.682 253.368 243.064C256.847 243.412 260.3 243.984 263.705 244.776C265.337 245.147 266.88 245.835 268.246 246.801C269.612 247.767 270.774 248.993 271.665 250.407C272.265 251.14 273.109 251.634 274.042 251.799C275.762 252.135 277.505 252.333 279.256 252.39C280.184 252.385 281.107 252.259 282.003 252.014C283.515 251.687 285.014 251.319 286.296 250.984C286.722 252.745 287.133 254.256 287.454 255.787C287.788 257.436 287.53 258.8 285.892 259.816C282.937 261.661 282.149 266.344 284.498 268.864C285.342 269.769 286.819 270.256 288.102 270.569C292.73 271.683 296.557 274.251 300.377 276.917C301.423 277.647 302.851 277.835 304.099 278.273L304.796 277.849C304.845 279.679 308.63 281.725 312.589 280.041C312.541 279.93 335.738 270.145 351.478 248.242Z" fill="white" stroke="black" stroke-miterlimit="10"/>
<path d="M290.36 169.042C290.179 168.959 289.816 169.251 289.523 169.39C290.039 174.457 294.403 176.739 299.505 174.394C298.836 173.667 298.091 173.013 297.282 172.445C295.023 171.248 292.688 170.135 290.36 169.042Z" fill="white" stroke="black" stroke-miterlimit="10"/>
<path d="M287.666 144.212C287.227 142.083 286.969 139.911 286.425 137.81C286.014 136.216 286.063 134.886 287.157 133.557C287.945 132.589 287.415 129.193 286.39 128.574C282.64 126.305 278.967 123.855 274.303 123.702C272.731 123.652 271.18 123.321 269.724 122.728C267.026 121.621 264.593 122.547 262.293 123.584C260.969 124.175 260.007 125.588 258.905 126.66C258.271 127.279 257.693 127.941 256.988 128.692L255.713 126.709L250.555 129.562C250.772 131.14 250.879 132.73 250.875 134.323C250.708 136.41 251.266 137.733 253.231 138.561C254.291 139.013 255.434 139.257 256.598 139.654C256.877 137.301 257.149 135.06 257.428 132.694C257.95 132.861 258.034 132.861 258.062 132.903C258.261 133.18 258.445 133.469 258.613 133.766C259.658 135.791 261.575 136.731 263.492 137.51C265.764 138.429 268.183 138.985 270.421 139.967C273.035 141.115 275.642 142.389 276.185 145.73C276.25 146.553 276.617 147.323 277.215 147.893C277.813 148.463 278.6 148.793 279.427 148.82C279.712 148.82 279.97 149.321 280.214 149.62C280.458 149.919 280.744 150.657 281.148 150.81C284.027 151.889 286.864 153.691 289.882 150.908C291.102 149.787 292.671 149.077 294.121 148.179C293.238 147.789 292.295 147.553 291.332 147.483C289.004 147.33 288.147 146.586 287.666 144.212Z" fill="white" stroke="black" stroke-miterlimit="10"/>
<path d="M316.593 124.564C313.756 124.049 310.974 123.249 308.172 122.574C308.172 122.407 308.214 122.233 308.242 122.059L306.59 123.451C306.753 123.706 306.93 123.952 307.12 124.188C309.287 126.457 311.392 128.74 312.814 131.621C313.574 133.159 316.774 133.862 318.956 133.076C317.241 131.781 315.763 130.682 314.285 129.596L314.467 129.318L322.009 130.598C321.388 125.232 321.995 125.545 316.593 124.564Z" fill="white" stroke="black" stroke-miterlimit="10"/>
<path d="M293.595 127.627C292.726 128.587 291.873 129.566 291.037 130.564C290.784 130.878 290.551 131.208 290.34 131.552C290.649 132.512 291.041 133.443 291.511 134.336C292.361 135.602 293.651 136.542 295.164 136.257C295.861 136.125 296.613 135.018 296.934 134.169C297.458 132.831 297.789 131.425 297.917 129.993C297.987 129.214 297.708 128.023 297.15 127.648C296.139 126.986 294.794 126.304 293.595 127.627Z" fill="white" stroke="black" stroke-miterlimit="10"/>
<path d="M432.066 385.553L494.606 190.159L487.301 187.834L472.126 235.299V233.211H425.793V194.933H418.125V233.211H340.752V194.933H333.084V233.211H253.62V194.933H245.952V233.211H169.973V194.933H162.306V233.211H87.721V194.933H80.0534V233.211H41.0183L28.3459 187.277L20.957 189.31L74.6302 383.806C74.8383 384.553 75.2418 385.23 75.7992 385.77C76.3566 386.309 77.0479 386.691 77.8019 386.875V386.875C78.1379 386.953 78.4816 386.993 78.8265 386.993H430.337C430.732 386.994 431.115 386.863 431.426 386.621C431.736 386.378 431.957 386.039 432.052 385.657V385.657C432.066 385.608 432.066 385.608 432.066 385.553ZM169.973 320.187H245.952V379.345H169.973V320.187ZM162.306 379.345H87.721V320.187H162.306V379.345ZM253.62 320.187H333.084V379.345H253.62V320.187ZM340.752 320.187H418.125V379.345H340.752V320.187ZM425.793 379.345V320.187H445.01L426.099 379.345H425.793ZM470.404 240.846L447.492 312.531H425.793V240.846H470.404ZM418.16 240.846V312.531H340.752V240.846H418.16ZM333.119 240.846V312.531H253.62V240.846H333.119ZM245.987 240.846V312.531H169.973V240.846H245.987ZM162.341 240.846V312.531H87.721V240.846H162.341ZM80.0882 240.846V312.531H62.9406L43.1095 240.846H80.0882ZM65.0597 320.187H80.0534V374.64L65.0597 320.187Z" fill="black"/>
<path d="M499.68 177.513H352.811C352.899 176.937 352.946 176.355 352.95 175.773C352.95 172.635 351.702 169.625 349.479 167.407C347.257 165.188 344.243 163.941 341.1 163.941C337.957 163.941 334.943 165.188 332.721 167.407C330.499 169.625 329.25 172.635 329.25 175.773C329.254 176.355 329.301 176.937 329.39 177.513H177.85C177.939 176.937 177.985 176.355 177.989 175.773C177.989 172.635 176.741 169.625 174.518 167.407C172.296 165.188 169.282 163.941 166.139 163.941C162.997 163.941 159.983 165.188 157.76 167.407C155.538 169.625 154.289 172.635 154.289 175.773C154.293 176.355 154.34 176.937 154.429 177.513H17.3182C15.4695 177.513 13.6965 178.246 12.3893 179.551C11.0821 180.856 10.3477 182.627 10.3477 184.473V187.256C10.3477 189.102 11.0821 190.873 12.3893 192.178C13.6965 193.483 15.4695 194.216 17.3182 194.216H499.68C501.529 194.216 503.302 193.483 504.609 192.178C505.916 190.873 506.651 189.102 506.651 187.256V184.473C506.651 182.627 505.916 180.856 504.609 179.551C503.302 178.246 501.529 177.513 499.68 177.513Z" fill="white" stroke="black" stroke-miterlimit="10"/>
<path d="M166.141 182.035C169.605 182.035 172.414 179.231 172.414 175.772C172.414 172.312 169.605 169.508 166.141 169.508C162.676 169.508 159.867 172.312 159.867 175.772C159.867 179.231 162.676 182.035 166.141 182.035Z" fill="black" stroke="#8738F6" stroke-miterlimit="10"/>
<path d="M341.102 182.035C344.566 182.035 347.375 179.231 347.375 175.772C347.375 172.312 344.566 169.508 341.102 169.508C337.637 169.508 334.828 172.312 334.828 175.772C334.828 179.231 337.637 182.035 341.102 182.035Z" fill="black" stroke="#8738F6" stroke-miterlimit="10"/>
<path d="M244.907 7H243.513C237.161 7 232.012 12.1413 232.012 18.4835C232.012 24.8257 237.161 29.967 243.513 29.967H244.907C251.259 29.967 256.409 24.8257 256.409 18.4835C256.409 12.1413 251.259 7 244.907 7Z" fill="black"/>
<path d="M246.62 21.6108C247.638 19.541 246.784 17.0385 244.711 16.0214C242.638 15.0042 240.131 15.8576 239.112 17.9274L163.67 171.211C162.651 173.281 163.506 175.783 165.579 176.8C167.652 177.817 170.159 176.964 171.177 174.894L246.62 21.6108Z" fill="white"/>
<path d="M263.38 7.34766H261.986C255.634 7.34766 250.484 12.489 250.484 18.8312C250.484 25.1733 255.634 30.3147 261.986 30.3147H263.38C269.732 30.3147 274.881 25.1733 274.881 18.8312C274.881 12.489 269.732 7.34766 263.38 7.34766Z" fill="black"/>
<path d="M335.984 174.798C337.012 176.863 339.522 177.706 341.591 176.679C343.659 175.652 344.502 173.146 343.474 171.081L267.336 18.1411C266.308 16.0759 263.798 15.2339 261.729 16.2604C259.661 17.2869 258.818 19.7933 259.846 21.8584L335.984 174.798Z" fill="white"/>
</svg>
