<?xml version="1.0" encoding="iso-8859-1"?>
<!-- Generator: Adobe Illustrator 19.0.0, SVG Export Plug-In . SVG Version: 6.00 Build 0)  -->
<svg version="1.1" id="Layer_1" xmlns="http://www.w3.org/2000/svg" xmlns:xlink="http://www.w3.org/1999/xlink" x="0px" y="0px"
	 viewBox="0 0 510.293 510.293" style="enable-background:new 0 0 510.293 510.293;" xml:space="preserve">
<g>
	<path style="fill:#FFE100;" d="M113.92,225.28c-13.653,0-26.453-5.12-35.84-15.36c-10.24-9.387-15.36-22.187-15.36-35.84
		s5.12-26.453,15.36-35.84l41.813-41.813c3.413-3.413,8.533-3.413,11.947,0s3.413,8.533,0,11.947l-41.813,41.813
		c-6.827,5.973-10.24,15.36-10.24,23.893c0,8.533,3.413,17.92,10.24,23.893c6.827,6.827,15.36,10.24,23.893,10.24
		s17.92-3.413,23.893-10.24l17.92-17.92c3.413-3.413,8.533-3.413,11.947,0s3.413,8.533,0,11.947l-17.92,17.92
		C140.373,220.16,127.573,225.28,113.92,225.28z"/>
	<path style="fill:#FFE100;" d="M155.733,80.213c-2.56,0-5.12-0.853-6.827-3.413c-2.56-3.413-2.56-9.387,0.853-11.947
		C160,56.32,165.12,48.64,165.973,40.96c0-7.68-4.267-16.213-14.507-26.453c-3.413-3.413-3.413-8.533,0-11.947s8.533-3.413,11.947,0
		c13.653,13.653,20.48,26.453,19.627,39.253c-0.853,12.8-7.68,24.747-22.187,35.84C160,79.36,158.293,80.213,155.733,80.213z"/>
</g>
<path style="fill:#00DA6C;" d="M73.813,59.733c-16.213,16.213-16.213,43.52,0,60.587L423.68,409.6L133.547,59.733
	C117.333,42.667,90.027,42.667,73.813,59.733"/>
<g>
	<path style="fill:#FFE100;" d="M329.813,296.107l77.653-77.653l-112.64-112.64l-67.413,67.413L329.813,296.107z"/>
	<path style="fill:#FFE100;" d="M186.453,213.333l-86.187,87.04l112.64,112.64l97.28-97.28L186.453,213.333z"/>
	<path style="fill:#FFE100;" d="M476.587,228.693l-72.533-4.267L290.56,110.933L285.44,38.4c0-2.56,0.853-5.12,2.56-7.68l6.827-5.12
		c3.413-3.413,0,5.973,3.413,10.24L480,217.6c3.413,3.413,13.653,0,10.24,3.413l-5.973,5.973
		C481.707,227.84,479.147,229.547,476.587,228.693"/>
</g>
<path style="fill:#FFA800;" d="M487.68,201.387L305.92,19.627c-3.413-3.413-9.387-3.413-13.653,0l-5.12,5.973
	c-0.853,0.853-1.707,2.56-2.56,4.267L288,25.6c3.413-3.413,0,5.973,3.413,10.24l181.76,181.76c2.56,2.56,7.68,1.707,10.24,1.707
	l4.267-4.267C491.093,210.773,491.093,204.8,487.68,201.387"/>
<g>
	<path style="fill:#FFE100;" d="M504.747,184.32L322.987,2.56c-3.413-3.413-9.387-3.413-13.653,0l-5.12,5.973
		c-0.853,0.853-1.707,2.56-2.56,4.267l3.413-4.267c3.413-3.413,0,5.973,3.413,10.24l181.76,181.76c2.56,2.56,7.68,1.707,10.24,1.707
		l4.267-4.267C508.16,193.707,508.16,187.733,504.747,184.32"/>
	<path style="fill:#FFE100;" d="M26.88,295.253l72.533,5.12l112.64,112.64l5.12,72.533c0,2.56-0.853,5.12-2.56,7.68l-5.973,5.973
		c-3.413,3.413-9.387,3.413-13.653,0L14.08,317.44c-3.413-3.413-3.413-9.387,0-13.653l5.973-5.12
		C21.76,296.107,24.32,295.253,26.88,295.253"/>
</g>
<path style="fill:#FFFFFF;" d="M13.227,319.147l181.76,181.76c3.413,3.413,9.387,3.413,13.653,0l5.973-5.973
	c0.853-0.853,1.707-2.56,2.56-4.267l-4.267,4.267c-3.413,3.413,0-5.973-3.413-10.24L27.733,303.787
	c-2.56-2.56-7.68-1.707-10.24-1.707l-4.267,4.267C9.813,309.76,9.813,315.733,13.227,319.147"/>
<path d="M480.853,232.107H480l-75.947-5.12l-117.76-117.76l-5.12-75.947c0-5.12,1.707-10.24,5.12-13.653l5.973-5.973
	c6.827-6.827,18.773-6.827,25.6,0l181.76,181.76c3.413,3.413,5.12,7.68,5.12,12.8c0,5.12-1.707,9.387-5.12,12.8l-5.973,5.973
	C490.24,229.547,485.973,232.107,480.853,232.107z M480.853,215.04C481.707,215.04,481.707,215.04,480.853,215.04l6.827-5.973
	v-0.853L305.92,25.6h-0.853l-5.973,5.973l4.267,69.973L411.733,209.92L480.853,215.04z"/>
<path d="M202.667,510.293c-5.12,0-9.387-1.707-12.8-5.12L8.107,323.413c-3.413-3.413-5.12-7.68-5.12-12.8
	c0-5.12,1.707-9.387,5.12-12.8l5.973-5.973c3.413-3.413,8.533-5.12,13.653-5.12l75.947,5.12L221.44,409.6l5.12,75.947
	c0,5.12-1.707,10.24-5.12,13.653l-5.973,5.973C212.053,508.587,207.787,510.293,202.667,510.293z M26.88,303.787
	C26.027,303.787,26.027,304.64,26.88,303.787l-6.827,5.973v0.853l181.76,181.76h0.853l5.973-5.973l-4.267-69.973L96,308.907
	L26.88,303.787L26.88,303.787z"/>
<rect x="296.833" y="104.95" transform="matrix(-0.1789 0.9839 -0.9839 -0.1789 519.5048 -109.3122)" width="17.067" height="114.35"/>
<rect x="312.805" y="153.727" transform="matrix(-0.2214 0.9752 -0.9752 -0.2214 606.4711 -45.3472)" width="17.067" height="131.416"/>
<rect x="209.953" y="208.654" transform="matrix(-0.3552 0.9348 -0.9348 -0.3552 572.1064 195.9068)" width="17.067" height="173.228"/>
<rect x="175.708" y="249.894" transform="matrix(-0.3237 0.9462 -0.9462 -0.3237 560.6571 268.8527)" width="17.067" height="169.82"/>
<path d="M423.68,418.133c-1.707,0-4.267-0.853-5.12-1.707L68.693,127.147c-10.24-10.24-15.36-23.04-15.36-36.693
	s5.12-26.453,15.36-35.84s22.187-15.36,35.84-15.36s26.453,5.12,35.84,15.36l290.133,350.72c2.56,3.413,2.56,8.533-0.853,11.093
	C427.947,417.28,425.387,418.133,423.68,418.133z M103.68,55.467c-9.387,0-17.92,3.413-23.893,10.24
	c-6.827,6.827-10.24,15.36-10.24,23.893s3.413,17.92,10.24,23.893L359.68,344.747L127.573,64.853
	C121.6,58.88,113.067,55.467,103.68,55.467z"/>
<path d="M127.573,122.88c-2.56,0-4.267-0.853-5.973-2.56L97.707,96.427c-3.413-3.413-3.413-8.533,0-11.947s8.533-3.413,11.947,0
	l23.893,23.893c3.413,3.413,3.413,8.533,0,11.947C131.84,122.027,130.133,122.88,127.573,122.88z"/>
<path d="M103.68,225.28c-13.653,0-26.453-5.12-35.84-15.36c-9.387-9.387-15.36-22.187-15.36-35.84c0-13.653,5.12-26.453,15.36-35.84
	l41.813-41.813c3.413-3.413,8.533-3.413,11.947,0s3.413,8.533,0,11.947l-41.813,41.813c-6.827,6.827-10.24,15.36-10.24,23.893
	c0,8.533,3.413,17.92,10.24,23.893c6.827,6.827,15.36,10.24,23.893,10.24s17.92-3.413,23.893-10.24l17.92-17.92
	c3.413-3.413,8.533-3.413,11.947,0s3.413,8.533,0,11.947l-17.92,18.773C130.133,220.16,117.333,225.28,103.68,225.28z"/>
<path d="M146.347,80.213c-2.56,0-5.12-0.853-6.827-3.413c-2.56-3.413-2.56-9.387,0.853-11.947
	c10.24-8.533,15.36-16.213,16.213-23.893c0-7.68-4.267-16.213-14.507-26.453c-3.413-3.413-3.413-8.533,0-11.947
	s8.533-3.413,11.947,0c13.653,13.653,20.48,26.453,19.627,39.253s-7.68,24.747-22.187,35.84
	C149.76,79.36,148.053,80.213,146.347,80.213z"/>
<path d="M328.96,308.907L216.32,172.373l78.507-78.507l124.587,124.587L328.96,308.907z M239.36,173.227l91.307,110.08
	l65.707-65.707l-101.547-99.84L239.36,173.227z"/>
<path d="M212.907,425.813L88.32,300.373l98.133-98.133l136.533,113.493L212.907,425.813z M112.213,300.373l100.693,100.693
	l84.48-84.48l-110.08-91.307L112.213,300.373z"/>
<g>
</g>
<g>
</g>
<g>
</g>
<g>
</g>
<g>
</g>
<g>
</g>
<g>
</g>
<g>
</g>
<g>
</g>
<g>
</g>
<g>
</g>
<g>
</g>
<g>
</g>
<g>
</g>
<g>
</g>
</svg>
